# xmcd
#
# Track frame offsets: 
#        183
#        13385
#        26445
#        37285
#        58595
#        71570
#        82500
#        94535
#        105585
#        116365
#        129030
#        142613
#        158690
#        171333
#        183250
#        194458
#
# Disc length: 2751 seconds
#
# Revision: 2
# Processed by: cddbd v1.5.2PL0 Copyright (c) Steve Scherf et al.
# Submitted via: ExactAudioCopy v1.3
#
DISCID=c20abd10
DTITLE=Various Artist - Country No.1´s Vol.1
DYEAR=1989
DGENRE=Country
TTITLE0=Williams, Hank - Jambalaya
TTITLE1=Helms, Bobby - Fraulein
TTITLE2=Reeves, Jim - He´ll have to go
TTITLE3=Robbins, Marty - El Paso
TTITLE4=Browns, The - The three bells
TTITLE5=Locklin, Hank - Please Help me I´m Falling
TTITLE6=Arnold, Eddy - Make the world go away
TTITLE7=Rich, Charlie - She called me baby
TTITLE8=Van Dyke, Leroy - Walk on by
TTITLE9=Cline, Patsy - I Fall to Pieces
TTITLE10=Dean, Jimmy - Big Bad John
TTITLE11=David Houston and Tammy Wynette - My Elusive Dream
TTITLE12=Andersen, Bill - Still
TTITLE13=Cash, Johnny - Ring of Fire
TTITLE14=Miller, Roger - King of the Road
TTITLE15=Wynette, Tammy - Stand by your Man
EXTD=
EXTT0=
EXTT1=
EXTT2=
EXTT3=
EXTT4=
EXTT5=
EXTT6=
EXTT7=
EXTT8=
EXTT9=
EXTT10=
EXTT11=
EXTT12=
EXTT13=
EXTT14=
EXTT15=
PLAYORDER=
